<svg width="28" height="29" viewBox="0 0 28 29" fill="none" xmlns="http://www.w3.org/2000/svg">
<path d="M24.7667 23.93C26.2038 22.2021 27.2034 20.1537 27.6808 17.9582C28.1582 15.7626 28.0994 13.4845 27.5093 11.3164C26.9193 9.14837 25.8154 7.15423 24.291 5.50268C22.7666 3.85112 20.8666 2.59075 18.7517 1.82818C16.6367 1.06561 14.3691 0.823278 12.1406 1.12168C9.91216 1.42008 7.78838 2.25043 5.94897 3.5425C4.10955 4.83457 2.60861 6.55034 1.57312 8.54467C0.537622 10.539 -0.001964 12.7532 5.37148e-06 15C0.000761085 18.2662 1.15257 21.4278 3.25333 23.93L3.23331 23.947C3.30336 24.031 3.38342 24.103 3.45547 24.186C3.54554 24.289 3.64261 24.386 3.73567 24.486C4.01587 24.79 4.30408 25.082 4.6063 25.356C4.69836 25.44 4.79343 25.518 4.8865 25.598C5.20672 25.874 5.53596 26.136 5.8772 26.38C5.92123 26.41 5.96126 26.449 6.0053 26.48V26.468C8.34907 28.1162 11.1451 29.0007 14.011 29.0007C16.877 29.0007 19.673 28.1162 22.0167 26.468V26.48C22.0608 26.449 22.0998 26.41 22.1448 26.38C22.4851 26.135 22.8153 25.874 23.1355 25.598C23.2286 25.518 23.3237 25.439 23.4157 25.356C23.7179 25.081 24.0062 24.79 24.2864 24.486C24.3794 24.386 24.4755 24.289 24.5666 24.186C24.6376 24.103 24.7187 24.031 24.7887 23.946L24.7667 23.93ZM14.01 7C14.9007 7 15.7713 7.26392 16.5119 7.75838C17.2524 8.25285 17.8296 8.95566 18.1704 9.77792C18.5113 10.6002 18.6005 11.505 18.4267 12.3779C18.2529 13.2508 17.8241 14.0526 17.1943 14.682C16.5645 15.3113 15.7621 15.7399 14.8885 15.9135C14.015 16.0872 13.1096 15.998 12.2867 15.6575C11.4639 15.3169 10.7605 14.7401 10.2657 14.0001C9.77091 13.26 9.5068 12.39 9.5068 11.5C9.5068 10.3065 9.98124 9.16193 10.8258 8.31802C11.6703 7.4741 12.8157 7 14.01 7V7ZM6.0113 23.93C6.02866 22.617 6.56264 21.3636 7.49772 20.4409C8.4328 19.5183 9.69378 19.0007 11.0079 19H17.0122C18.3262 19.0007 19.5872 19.5183 20.5223 20.4409C21.4574 21.3636 21.9914 22.617 22.0087 23.93C19.814 25.9063 16.9644 27.0001 14.01 27.0001C11.0556 27.0001 8.20603 25.9063 6.0113 23.93V23.93Z" fill="black"/>
</svg>
